<svg xmlns="http://www.w3.org/2000/svg" viewBox="0 0 900 1000" width="900" height="1000">
  <rect width="900" height="1000" fill="#FAFAF8"/>
  <text x="450" y="28" text-anchor="middle" font-family="system-ui" font-size="11" fill="#A3A3A3" letter-spacing="3">6D — ANGLE BRACKETS + DOT — REFINED</text>

  <!-- ─── ROW 1: BRACKET PROPORTIONS ─── -->
  <text x="450" y="58" text-anchor="middle" font-family="system-ui" font-size="9" fill="#C0BDB8" letter-spacing="2">BRACKET PROPORTIONS</text>

  <!-- A: Original — baseline -->
  <g transform="translate(30, 68)">
    <text x="120" y="0" text-anchor="middle" font-family="system-ui" font-size="10" fill="#A3A3A3" letter-spacing="2">A · ORIGINAL</text>
    <rect x="20" y="15" width="200" height="165" rx="16" fill="white" stroke="#E8E6E1" stroke-width="1"/>
    <path d="M 78 47 L 50 85 L 78 123" fill="none" stroke="#7C5CFC" stroke-width="5" stroke-linecap="round" stroke-linejoin="round"/>
    <path d="M 162 47 L 190 85 L 162 123" fill="none" stroke="#7C5CFC" stroke-width="5" stroke-linecap="round" stroke-linejoin="round"/>
    <circle cx="120" cy="85" r="15" fill="#7C5CFC"/>
    <circle cx="120" cy="85" r="5.5" fill="white"/>
    <text x="120" y="158" text-anchor="middle" font-family="system-ui" font-size="22" font-weight="600" fill="#1A1A1A" letter-spacing="-1">mav</text>
  </g>

  <!-- B: Wide/flat chevrons — more open -->
  <g transform="translate(260, 68)">
    <text x="120" y="0" text-anchor="middle" font-family="system-ui" font-size="10" fill="#A3A3A3" letter-spacing="2">B · WIDE OPEN</text>
    <rect x="20" y="15" width="200" height="165" rx="16" fill="white" stroke="#E8E6E1" stroke-width="1"/>
    <path d="M 88 50 L 48 85 L 88 120" fill="none" stroke="#7C5CFC" stroke-width="5" stroke-linecap="round" stroke-linejoin="round"/>
    <path d="M 152 50 L 192 85 L 152 120" fill="none" stroke="#7C5CFC" stroke-width="5" stroke-linecap="round" stroke-linejoin="round"/>
    <circle cx="120" cy="85" r="15" fill="#7C5CFC"/>
    <circle cx="120" cy="85" r="5.5" fill="white"/>
    <text x="120" y="158" text-anchor="middle" font-family="system-ui" font-size="22" font-weight="600" fill="#1A1A1A" letter-spacing="-1">mav</text>
  </g>

  <!-- C: Tall/narrow chevrons — more intense -->
  <g transform="translate(490, 68)">
    <text x="120" y="0" text-anchor="middle" font-family="system-ui" font-size="10" fill="#A3A3A3" letter-spacing="2">C · TALL SHARP</text>
    <rect x="20" y="15" width="200" height="165" rx="16" fill="white" stroke="#E8E6E1" stroke-width="1"/>
    <path d="M 80 35 L 52 85 L 80 135" fill="none" stroke="#7C5CFC" stroke-width="5" stroke-linecap="round" stroke-linejoin="round"/>
    <path d="M 160 35 L 188 85 L 160 135" fill="none" stroke="#7C5CFC" stroke-width="5" stroke-linecap="round" stroke-linejoin="round"/>
    <circle cx="120" cy="85" r="15" fill="#7C5CFC"/>
    <circle cx="120" cy="85" r="5.5" fill="white"/>
    <text x="120" y="158" text-anchor="middle" font-family="system-ui" font-size="22" font-weight="600" fill="#1A1A1A" letter-spacing="-1">mav</text>
  </g>

  <!-- ─── ROW 2: DOT CHARACTER ─── -->
  <text x="450" y="278" text-anchor="middle" font-family="system-ui" font-size="9" fill="#C0BDB8" letter-spacing="2">DOT CHARACTER</text>

  <!-- D: Larger dot — fills more of the space, bolder -->
  <g transform="translate(30, 288)">
    <text x="120" y="0" text-anchor="middle" font-family="system-ui" font-size="10" fill="#A3A3A3" letter-spacing="2">D · BIG DOT</text>
    <rect x="20" y="15" width="200" height="165" rx="16" fill="white" stroke="#E8E6E1" stroke-width="1"/>
    <path d="M 78 47 L 50 85 L 78 123" fill="none" stroke="#7C5CFC" stroke-width="5" stroke-linecap="round" stroke-linejoin="round"/>
    <path d="M 162 47 L 190 85 L 162 123" fill="none" stroke="#7C5CFC" stroke-width="5" stroke-linecap="round" stroke-linejoin="round"/>
    <circle cx="120" cy="85" r="22" fill="#7C5CFC"/>
    <circle cx="120" cy="85" r="8"  fill="white"/>
    <text x="120" y="158" text-anchor="middle" font-family="system-ui" font-size="22" font-weight="600" fill="#1A1A1A" letter-spacing="-1">mav</text>
  </g>

  <!-- E: Small dot — minimal, lots of air -->
  <g transform="translate(260, 288)">
    <text x="120" y="0" text-anchor="middle" font-family="system-ui" font-size="10" fill="#A3A3A3" letter-spacing="2">E · SMALL DOT</text>
    <rect x="20" y="15" width="200" height="165" rx="16" fill="white" stroke="#E8E6E1" stroke-width="1"/>
    <path d="M 78 47 L 50 85 L 78 123" fill="none" stroke="#7C5CFC" stroke-width="5" stroke-linecap="round" stroke-linejoin="round"/>
    <path d="M 162 47 L 190 85 L 162 123" fill="none" stroke="#7C5CFC" stroke-width="5" stroke-linecap="round" stroke-linejoin="round"/>
    <circle cx="120" cy="85" r="9" fill="#7C5CFC"/>
    <circle cx="120" cy="85" r="3" fill="white"/>
    <text x="120" y="158" text-anchor="middle" font-family="system-ui" font-size="22" font-weight="600" fill="#1A1A1A" letter-spacing="-1">mav</text>
  </g>

  <!-- F: Dot offset right — agent moving out of frame -->
  <g transform="translate(490, 288)">
    <text x="120" y="0" text-anchor="middle" font-family="system-ui" font-size="10" fill="#A3A3A3" letter-spacing="2">F · DOT IN MOTION</text>
    <rect x="20" y="15" width="200" height="165" rx="16" fill="white" stroke="#E8E6E1" stroke-width="1"/>
    <path d="M 78 47 L 50 85 L 78 123" fill="none" stroke="#7C5CFC" stroke-width="5" stroke-linecap="round" stroke-linejoin="round"/>
    <path d="M 162 47 L 190 85 L 162 123" fill="none" stroke="#7C5CFC" stroke-width="5" stroke-linecap="round" stroke-linejoin="round"/>
    <!-- Dot shifted right + ghost trail behind it -->
    <circle cx="108" cy="85" r="10" fill="#7C5CFC" opacity="0.12"/>
    <circle cx="116" cy="85" r="12" fill="#7C5CFC" opacity="0.22"/>
    <circle cx="130" cy="85" r="15" fill="#7C5CFC"/>
    <circle cx="130" cy="85" r="5.5" fill="white"/>
    <text x="120" y="158" text-anchor="middle" font-family="system-ui" font-size="22" font-weight="600" fill="#1A1A1A" letter-spacing="-1">mav</text>
  </g>

  <!-- ─── ROW 3: STROKE WEIGHT + SPECIAL ─── -->
  <text x="450" y="498" text-anchor="middle" font-family="system-ui" font-size="9" fill="#C0BDB8" letter-spacing="2">STROKE WEIGHT + HYBRID</text>

  <!-- G: Thin elegant strokes -->
  <g transform="translate(30, 508)">
    <text x="120" y="0" text-anchor="middle" font-family="system-ui" font-size="10" fill="#A3A3A3" letter-spacing="2">G · THIN</text>
    <rect x="20" y="15" width="200" height="165" rx="16" fill="white" stroke="#E8E6E1" stroke-width="1"/>
    <path d="M 78 47 L 50 85 L 78 123" fill="none" stroke="#7C5CFC" stroke-width="2.5" stroke-linecap="round" stroke-linejoin="round"/>
    <path d="M 162 47 L 190 85 L 162 123" fill="none" stroke="#7C5CFC" stroke-width="2.5" stroke-linecap="round" stroke-linejoin="round"/>
    <circle cx="120" cy="85" r="15" fill="#7C5CFC"/>
    <circle cx="120" cy="85" r="5.5" fill="white"/>
    <text x="120" y="158" text-anchor="middle" font-family="system-ui" font-size="22" font-weight="500" fill="#1A1A1A" letter-spacing="-0.5">mav</text>
  </g>

  <!-- H: Heavy strokes — bold, commanding -->
  <g transform="translate(260, 508)">
    <text x="120" y="0" text-anchor="middle" font-family="system-ui" font-size="10" fill="#A3A3A3" letter-spacing="2">H · HEAVY</text>
    <rect x="20" y="15" width="200" height="165" rx="16" fill="white" stroke="#E8E6E1" stroke-width="1"/>
    <path d="M 78 47 L 50 85 L 78 123" fill="none" stroke="#7C5CFC" stroke-width="9" stroke-linecap="round" stroke-linejoin="round"/>
    <path d="M 162 47 L 190 85 L 162 123" fill="none" stroke="#7C5CFC" stroke-width="9" stroke-linecap="round" stroke-linejoin="round"/>
    <circle cx="120" cy="85" r="17" fill="#7C5CFC"/>
    <circle cx="120" cy="85" r="6.5" fill="white"/>
    <text x="120" y="158" text-anchor="middle" font-family="system-ui" font-size="22" font-weight="700" fill="#1A1A1A" letter-spacing="-1.5">mav</text>
  </g>

  <!-- I: Wordmark as < mav > — brackets wrap the text -->
  <g transform="translate(490, 508)">
    <text x="120" y="0" text-anchor="middle" font-family="system-ui" font-size="10" fill="#A3A3A3" letter-spacing="2">I · &lt;mav&gt; LOCKUP</text>
    <rect x="20" y="15" width="200" height="165" rx="16" fill="white" stroke="#E8E6E1" stroke-width="1"/>
    <!-- Icon mark only — no separate wordmark -->
    <path d="M 62 42 L 38 85 L 62 128" fill="none" stroke="#7C5CFC" stroke-width="5" stroke-linecap="round" stroke-linejoin="round"/>
    <path d="M 178 42 L 202 85 L 178 128" fill="none" stroke="#7C5CFC" stroke-width="5" stroke-linecap="round" stroke-linejoin="round"/>
    <text x="120" y="94" text-anchor="middle" font-family="system-ui" font-size="30" font-weight="700" fill="#7C5CFC" letter-spacing="-1">mav</text>
    <!-- No separate wordmark — the mark IS the logo -->
    <text x="120" y="158" text-anchor="middle" font-family="system-ui" font-size="11" fill="#C0BDB8" letter-spacing="1">mark = wordmark</text>
  </g>

  <!-- ─── FAVICONS ─── -->
  <text x="450" y="720" text-anchor="middle" font-family="system-ui" font-size="10" fill="#A3A3A3" letter-spacing="2">FAVICONS</text>

  <!-- A fav -->
  <g transform="translate(42, 732)">
    <rect width="48" height="48" rx="12" fill="#7C5CFC"/>
    <path d="M 18 10 L 8 24 L 18 38" fill="none" stroke="white" stroke-width="2.8" stroke-linecap="round" stroke-linejoin="round"/>
    <path d="M 30 10 L 40 24 L 30 38" fill="none" stroke="white" stroke-width="2.8" stroke-linecap="round" stroke-linejoin="round"/>
    <circle cx="24" cy="24" r="6" fill="white"/>
    <circle cx="24" cy="24" r="2.2" fill="#7C5CFC"/>
    <text x="24" y="62" text-anchor="middle" font-family="system-ui" font-size="9" fill="#6B6B6B">A</text>
  </g>
  <!-- B fav -->
  <g transform="translate(102, 732)">
    <rect width="48" height="48" rx="12" fill="#7C5CFC"/>
    <path d="M 22 10 L 8 24 L 22 38" fill="none" stroke="white" stroke-width="2.8" stroke-linecap="round" stroke-linejoin="round"/>
    <path d="M 26 10 L 40 24 L 26 38" fill="none" stroke="white" stroke-width="2.8" stroke-linecap="round" stroke-linejoin="round"/>
    <circle cx="24" cy="24" r="6" fill="white"/>
    <circle cx="24" cy="24" r="2.2" fill="#7C5CFC"/>
    <text x="24" y="62" text-anchor="middle" font-family="system-ui" font-size="9" fill="#6B6B6B">B</text>
  </g>
  <!-- C fav -->
  <g transform="translate(162, 732)">
    <rect width="48" height="48" rx="12" fill="#7C5CFC"/>
    <path d="M 18 6 L 8 24 L 18 42" fill="none" stroke="white" stroke-width="2.8" stroke-linecap="round" stroke-linejoin="round"/>
    <path d="M 30 6 L 40 24 L 30 42" fill="none" stroke="white" stroke-width="2.8" stroke-linecap="round" stroke-linejoin="round"/>
    <circle cx="24" cy="24" r="6" fill="white"/>
    <circle cx="24" cy="24" r="2.2" fill="#7C5CFC"/>
    <text x="24" y="62" text-anchor="middle" font-family="system-ui" font-size="9" fill="#6B6B6B">C</text>
  </g>
  <!-- D fav -->
  <g transform="translate(282, 732)">
    <rect width="48" height="48" rx="12" fill="#7C5CFC"/>
    <path d="M 18 10 L 8 24 L 18 38" fill="none" stroke="white" stroke-width="2.8" stroke-linecap="round" stroke-linejoin="round"/>
    <path d="M 30 10 L 40 24 L 30 38" fill="none" stroke="white" stroke-width="2.8" stroke-linecap="round" stroke-linejoin="round"/>
    <circle cx="24" cy="24" r="9" fill="white"/>
    <circle cx="24" cy="24" r="3.5" fill="#7C5CFC"/>
    <text x="24" y="62" text-anchor="middle" font-family="system-ui" font-size="9" fill="#6B6B6B">D</text>
  </g>
  <!-- E fav -->
  <g transform="translate(342, 732)">
    <rect width="48" height="48" rx="12" fill="#7C5CFC"/>
    <path d="M 18 10 L 8 24 L 18 38" fill="none" stroke="white" stroke-width="2.8" stroke-linecap="round" stroke-linejoin="round"/>
    <path d="M 30 10 L 40 24 L 30 38" fill="none" stroke="white" stroke-width="2.8" stroke-linecap="round" stroke-linejoin="round"/>
    <circle cx="24" cy="24" r="3.5" fill="white"/>
    <circle cx="24" cy="24" r="1.5" fill="#7C5CFC"/>
    <text x="24" y="62" text-anchor="middle" font-family="system-ui" font-size="9" fill="#6B6B6B">E</text>
  </g>
  <!-- F fav -->
  <g transform="translate(402, 732)">
    <rect width="48" height="48" rx="12" fill="#7C5CFC"/>
    <path d="M 18 10 L 8 24 L 18 38" fill="none" stroke="white" stroke-width="2.8" stroke-linecap="round" stroke-linejoin="round"/>
    <path d="M 30 10 L 40 24 L 30 38" fill="none" stroke="white" stroke-width="2.8" stroke-linecap="round" stroke-linejoin="round"/>
    <circle cx="19" cy="24" r="4"   fill="white" opacity="0.18"/>
    <circle cx="22" cy="24" r="5"   fill="white" opacity="0.35"/>
    <circle cx="27" cy="24" r="6.5" fill="white"/>
    <circle cx="27" cy="24" r="2.5" fill="#7C5CFC"/>
    <text x="24" y="62" text-anchor="middle" font-family="system-ui" font-size="9" fill="#6B6B6B">F</text>
  </g>
  <!-- G fav -->
  <g transform="translate(522, 732)">
    <rect width="48" height="48" rx="12" fill="#7C5CFC"/>
    <path d="M 18 10 L 8 24 L 18 38" fill="none" stroke="white" stroke-width="1.5" stroke-linecap="round" stroke-linejoin="round"/>
    <path d="M 30 10 L 40 24 L 30 38" fill="none" stroke="white" stroke-width="1.5" stroke-linecap="round" stroke-linejoin="round"/>
    <circle cx="24" cy="24" r="6" fill="white"/>
    <circle cx="24" cy="24" r="2.2" fill="#7C5CFC"/>
    <text x="24" y="62" text-anchor="middle" font-family="system-ui" font-size="9" fill="#6B6B6B">G</text>
  </g>
  <!-- H fav -->
  <g transform="translate(582, 732)">
    <rect width="48" height="48" rx="12" fill="#7C5CFC"/>
    <path d="M 18 10 L 8 24 L 18 38" fill="none" stroke="white" stroke-width="5" stroke-linecap="round" stroke-linejoin="round"/>
    <path d="M 30 10 L 40 24 L 30 38" fill="none" stroke="white" stroke-width="5" stroke-linecap="round" stroke-linejoin="round"/>
    <circle cx="24" cy="24" r="7.5" fill="white"/>
    <circle cx="24" cy="24" r="2.8" fill="#7C5CFC"/>
    <text x="24" y="62" text-anchor="middle" font-family="system-ui" font-size="9" fill="#6B6B6B">H</text>
  </g>
  <!-- I fav -->
  <g transform="translate(762, 732)">
    <rect width="48" height="48" rx="12" fill="#7C5CFC"/>
    <path d="M 15 10 L 6 24 L 15 38" fill="none" stroke="white" stroke-width="2.5" stroke-linecap="round" stroke-linejoin="round"/>
    <path d="M 33 10 L 42 24 L 33 38" fill="none" stroke="white" stroke-width="2.5" stroke-linecap="round" stroke-linejoin="round"/>
    <text x="24" y="28" text-anchor="middle" font-family="system-ui" font-size="11" font-weight="700" fill="white" letter-spacing="-0.5">mav</text>
    <text x="24" y="62" text-anchor="middle" font-family="system-ui" font-size="9" fill="#6B6B6B">I</text>
  </g>

  <!-- ─── DARK BAR ─── -->
  <text x="450" y="838" text-anchor="middle" font-family="system-ui" font-size="10" fill="#A3A3A3" letter-spacing="2">TOP CANDIDATES — INLINE</text>

  <rect x="30" y="850" width="840" height="72" rx="12" fill="#1A1A1A"/>

  <!-- A inline -->
  <g transform="translate(52, 868)">
    <path d="M 12 2 L 2 18 L 12 34" fill="none" stroke="white" stroke-width="2.8" stroke-linecap="round" stroke-linejoin="round"/>
    <path d="M 24 2 L 34 18 L 24 34" fill="none" stroke="white" stroke-width="2.8" stroke-linecap="round" stroke-linejoin="round"/>
    <circle cx="18" cy="18" r="6.5" fill="white"/>
    <circle cx="18" cy="18" r="2.5" fill="#1A1A1A"/>
    <text x="46" y="24" font-family="system-ui" font-size="22" font-weight="600" fill="white" letter-spacing="-1">mav</text>
  </g>

  <!-- H inline -->
  <g transform="translate(330, 868)">
    <path d="M 12 2 L 2 18 L 12 34" fill="none" stroke="white" stroke-width="5" stroke-linecap="round" stroke-linejoin="round"/>
    <path d="M 26 2 L 36 18 L 26 34" fill="none" stroke="white" stroke-width="5" stroke-linecap="round" stroke-linejoin="round"/>
    <circle cx="19" cy="18" r="7.5" fill="white"/>
    <circle cx="19" cy="18" r="2.8" fill="#1A1A1A"/>
    <text x="48" y="24" font-family="system-ui" font-size="22" font-weight="700" fill="white" letter-spacing="-1">mav</text>
  </g>

  <!-- I inline -->
  <g transform="translate(610, 868)">
    <path d="M 10 2 L 0 18 L 10 34" fill="none" stroke="white" stroke-width="2.5" stroke-linecap="round" stroke-linejoin="round"/>
    <path d="M 46 2 L 56 18 L 46 34" fill="none" stroke="white" stroke-width="2.5" stroke-linecap="round" stroke-linejoin="round"/>
    <text x="28" y="24" text-anchor="middle" font-family="system-ui" font-size="22" font-weight="700" fill="white" letter-spacing="-1">mav</text>
  </g>

  <!-- Labels -->
  <text x="130"  y="938" text-anchor="middle" font-family="system-ui" font-size="9" fill="#6B6B6B" letter-spacing="1">A — STANDARD</text>
  <text x="405"  y="938" text-anchor="middle" font-family="system-ui" font-size="9" fill="#6B6B6B" letter-spacing="1">H — HEAVY</text>
  <text x="688"  y="938" text-anchor="middle" font-family="system-ui" font-size="9" fill="#6B6B6B" letter-spacing="1">I — &lt;mav&gt; WORDMARK</text>

</svg>
