<svg xmlns="http://www.w3.org/2000/svg" viewBox="0 0 900 800" width="900" height="800">
  <rect width="900" height="800" fill="#FAFAF8"/>
  <text x="450" y="28" text-anchor="middle" font-family="system-ui" font-size="11" fill="#A3A3A3" letter-spacing="3">DIRECTION 7 — SPLIT M — REFINEMENTS</text>

  <!-- 7A: Deeper V, solid filled dots, no center node -->
  <g transform="translate(30, 55)">
    <text x="120" y="0" text-anchor="middle" font-family="system-ui" font-size="10" fill="#A3A3A3" letter-spacing="2">7A · DEEP V, NO CENTER</text>
    <rect x="20" y="15" width="200" height="160" rx="16" fill="white" stroke="#E8E6E1" stroke-width="1"/>
    <!-- M strokes with deep V -->
    <path d="M 65 125 L 65 48" fill="none" stroke="#7C5CFC" stroke-width="9" stroke-linecap="round"/>
    <path d="M 65 48 L 120 105" fill="none" stroke="#7C5CFC" stroke-width="9" stroke-linecap="round" stroke-linejoin="round"/>
    <path d="M 120 105 L 175 48" fill="none" stroke="#7C5CFC" stroke-width="9" stroke-linecap="round" stroke-linejoin="round"/>
    <path d="M 175 48 L 175 125" fill="none" stroke="#7C5CFC" stroke-width="9" stroke-linecap="round"/>
    <!-- Agent nodes — solid -->
    <circle cx="65" cy="43" r="11" fill="#7C5CFC"/>
    <circle cx="65" cy="43" r="4" fill="white"/>
    <circle cx="175" cy="43" r="11" fill="#7C5CFC"/>
    <circle cx="175" cy="43" r="4" fill="white"/>
    <text x="120" y="157" text-anchor="middle" font-family="system-ui" font-size="22" font-weight="600" fill="#1A1A1A" letter-spacing="-1">mav</text>
  </g>

  <!-- 7B: Deeper V, with subtle center node -->
  <g transform="translate(260, 55)">
    <text x="120" y="0" text-anchor="middle" font-family="system-ui" font-size="10" fill="#A3A3A3" letter-spacing="2">7B · DEEP V, CENTER NODE</text>
    <rect x="20" y="15" width="200" height="160" rx="16" fill="white" stroke="#E8E6E1" stroke-width="1"/>
    <path d="M 65 125 L 65 48" fill="none" stroke="#7C5CFC" stroke-width="9" stroke-linecap="round"/>
    <path d="M 65 48 L 120 105" fill="none" stroke="#7C5CFC" stroke-width="9" stroke-linecap="round" stroke-linejoin="round"/>
    <path d="M 120 105 L 175 48" fill="none" stroke="#7C5CFC" stroke-width="9" stroke-linecap="round" stroke-linejoin="round"/>
    <path d="M 175 48 L 175 125" fill="none" stroke="#7C5CFC" stroke-width="9" stroke-linecap="round"/>
    <!-- Agent nodes -->
    <circle cx="65" cy="43" r="11" fill="#7C5CFC"/>
    <circle cx="65" cy="43" r="4" fill="white"/>
    <circle cx="175" cy="43" r="11" fill="#7C5CFC"/>
    <circle cx="175" cy="43" r="4" fill="white"/>
    <!-- Center meeting node -->
    <circle cx="120" cy="105" r="7" fill="white" stroke="#7C5CFC" stroke-width="2.5"/>
    <text x="120" y="157" text-anchor="middle" font-family="system-ui" font-size="22" font-weight="600" fill="#1A1A1A" letter-spacing="-1">mav</text>
  </g>

  <!-- 7C: Mid V, thinner strokes, floating dots -->
  <g transform="translate(490, 55)">
    <text x="120" y="0" text-anchor="middle" font-family="system-ui" font-size="10" fill="#A3A3A3" letter-spacing="2">7C · MID V, THIN + FLOAT</text>
    <rect x="20" y="15" width="200" height="160" rx="16" fill="white" stroke="#E8E6E1" stroke-width="1"/>
    <path d="M 65 125 L 65 52" fill="none" stroke="#7C5CFC" stroke-width="6" stroke-linecap="round"/>
    <path d="M 65 52 L 120 95" fill="none" stroke="#7C5CFC" stroke-width="6" stroke-linecap="round" stroke-linejoin="round"/>
    <path d="M 120 95 L 175 52" fill="none" stroke="#7C5CFC" stroke-width="6" stroke-linecap="round" stroke-linejoin="round"/>
    <path d="M 175 52 L 175 125" fill="none" stroke="#7C5CFC" stroke-width="6" stroke-linecap="round"/>
    <!-- Floating dots (disconnected, above strokes) -->
    <circle cx="65" cy="36" r="8" fill="#7C5CFC"/>
    <circle cx="65" cy="36" r="3" fill="white"/>
    <circle cx="175" cy="36" r="8" fill="#7C5CFC"/>
    <circle cx="175" cy="36" r="3" fill="white"/>
    <text x="120" y="157" text-anchor="middle" font-family="system-ui" font-size="22" font-weight="500" fill="#1A1A1A" letter-spacing="-0.5">mav</text>
  </g>

  <!-- 7D: Asymmetric — left agent bigger (lead agent) -->
  <g transform="translate(30, 275)">
    <text x="120" y="0" text-anchor="middle" font-family="system-ui" font-size="10" fill="#A3A3A3" letter-spacing="2">7D · ASYMMETRIC LEAD</text>
    <rect x="20" y="15" width="200" height="160" rx="16" fill="white" stroke="#E8E6E1" stroke-width="1"/>
    <path d="M 60 125 L 60 44" fill="none" stroke="#7C5CFC" stroke-width="9" stroke-linecap="round"/>
    <path d="M 60 44 L 118 100" fill="none" stroke="#7C5CFC" stroke-width="9" stroke-linecap="round" stroke-linejoin="round"/>
    <path d="M 118 100 L 175 55" fill="none" stroke="#7C5CFC" stroke-width="9" stroke-linecap="round" stroke-linejoin="round"/>
    <path d="M 175 55 L 175 125" fill="none" stroke="#7C5CFC" stroke-width="9" stroke-linecap="round"/>
    <!-- Left agent: larger (lead) -->
    <circle cx="60" cy="38" r="13" fill="#7C5CFC"/>
    <circle cx="60" cy="38" r="5" fill="white"/>
    <!-- Right agent: smaller (follower) -->
    <circle cx="175" cy="49" r="9" fill="#7C5CFC"/>
    <circle cx="175" cy="49" r="3.5" fill="white"/>
    <text x="120" y="157" text-anchor="middle" font-family="system-ui" font-size="22" font-weight="600" fill="#1A1A1A" letter-spacing="-1">mav</text>
  </g>

  <!-- 7E: Rounded M, pill aesthetic, matching brand curve -->
  <g transform="translate(260, 275)">
    <text x="120" y="0" text-anchor="middle" font-family="system-ui" font-size="10" fill="#A3A3A3" letter-spacing="2">7E · ROUNDED / PILL</text>
    <rect x="20" y="15" width="200" height="160" rx="16" fill="white" stroke="#E8E6E1" stroke-width="1"/>
    <!-- Pill container -->
    <rect x="42" y="30" width="156" height="100" rx="28" fill="none" stroke="#7C5CFC" stroke-width="3.5" opacity="0.12"/>
    <path d="M 70 120 L 70 52" fill="none" stroke="#7C5CFC" stroke-width="8" stroke-linecap="round"/>
    <path d="M 70 52 L 120 98" fill="none" stroke="#7C5CFC" stroke-width="8" stroke-linecap="round" stroke-linejoin="round"/>
    <path d="M 120 98 L 170 52" fill="none" stroke="#7C5CFC" stroke-width="8" stroke-linecap="round" stroke-linejoin="round"/>
    <path d="M 170 52 L 170 120" fill="none" stroke="#7C5CFC" stroke-width="8" stroke-linecap="round"/>
    <circle cx="70" cy="46" r="10" fill="#7C5CFC"/>
    <circle cx="70" cy="46" r="3.5" fill="white"/>
    <circle cx="170" cy="46" r="10" fill="#7C5CFC"/>
    <circle cx="170" cy="46" r="3.5" fill="white"/>
    <text x="120" y="157" text-anchor="middle" font-family="system-ui" font-size="22" font-weight="600" fill="#1A1A1A" letter-spacing="-1">mav</text>
  </g>

  <!-- 7F: Two-color — each agent distinct -->
  <g transform="translate(490, 275)">
    <text x="120" y="0" text-anchor="middle" font-family="system-ui" font-size="10" fill="#A3A3A3" letter-spacing="2">7F · DUAL TONE</text>
    <rect x="20" y="15" width="200" height="160" rx="16" fill="white" stroke="#E8E6E1" stroke-width="1"/>
    <!-- Left agent + stroke: purple -->
    <path d="M 65 125 L 65 48" fill="none" stroke="#7C5CFC" stroke-width="9" stroke-linecap="round"/>
    <path d="M 65 48 L 120 105" fill="none" stroke="#7C5CFC" stroke-width="9" stroke-linecap="round" stroke-linejoin="round"/>
    <circle cx="65" cy="43" r="11" fill="#7C5CFC"/>
    <circle cx="65" cy="43" r="4" fill="white"/>
    <!-- Right agent + stroke: warm slate -->
    <path d="M 175 48 L 175 125" fill="none" stroke="#4F46E5" stroke-width="9" stroke-linecap="round"/>
    <path d="M 120 105 L 175 48" fill="none" stroke="#4F46E5" stroke-width="9" stroke-linecap="round" stroke-linejoin="round"/>
    <circle cx="175" cy="43" r="11" fill="#4F46E5"/>
    <circle cx="175" cy="43" r="4" fill="white"/>
    <!-- Center node -->
    <circle cx="120" cy="105" r="6" fill="#6A51FA"/>
    <circle cx="120" cy="105" r="2.5" fill="white"/>
    <text x="120" y="157" text-anchor="middle" font-family="system-ui" font-size="22" font-weight="600" fill="#1A1A1A" letter-spacing="-1">mav</text>
  </g>

  <!-- FAVICON ROW -->
  <text x="450" y="480" text-anchor="middle" font-family="system-ui" font-size="10" fill="#A3A3A3" letter-spacing="2">FAVICONS (48px)</text>

  <!-- 7A fav -->
  <g transform="translate(68, 496)">
    <rect width="48" height="48" rx="12" fill="#7C5CFC"/>
    <path d="M 13 38 L 13 14" fill="none" stroke="white" stroke-width="4" stroke-linecap="round"/>
    <path d="M 13 14 L 24 28" fill="none" stroke="white" stroke-width="4" stroke-linecap="round" stroke-linejoin="round"/>
    <path d="M 24 28 L 35 14" fill="none" stroke="white" stroke-width="4" stroke-linecap="round" stroke-linejoin="round"/>
    <path d="M 35 14 L 35 38" fill="none" stroke="white" stroke-width="4" stroke-linecap="round"/>
    <circle cx="13" cy="11" r="4.5" fill="white"/>
    <circle cx="13" cy="11" r="1.8" fill="#7C5CFC"/>
    <circle cx="35" cy="11" r="4.5" fill="white"/>
    <circle cx="35" cy="11" r="1.8" fill="#7C5CFC"/>
    <text x="24" y="62" text-anchor="middle" font-family="system-ui" font-size="9" fill="#6B6B6B">7A</text>
  </g>

  <!-- 7B fav -->
  <g transform="translate(188, 496)">
    <rect width="48" height="48" rx="12" fill="#7C5CFC"/>
    <path d="M 13 38 L 13 14" fill="none" stroke="white" stroke-width="4" stroke-linecap="round"/>
    <path d="M 13 14 L 24 28" fill="none" stroke="white" stroke-width="4" stroke-linecap="round" stroke-linejoin="round"/>
    <path d="M 24 28 L 35 14" fill="none" stroke="white" stroke-width="4" stroke-linecap="round" stroke-linejoin="round"/>
    <path d="M 35 14 L 35 38" fill="none" stroke="white" stroke-width="4" stroke-linecap="round"/>
    <circle cx="13" cy="11" r="4.5" fill="white"/>
    <circle cx="13" cy="11" r="1.8" fill="#7C5CFC"/>
    <circle cx="35" cy="11" r="4.5" fill="white"/>
    <circle cx="35" cy="11" r="1.8" fill="#7C5CFC"/>
    <!-- Center node -->
    <circle cx="24" cy="28" r="3.5" fill="white" stroke="#7C5CFC" stroke-width="1.5"/>
    <text x="24" y="62" text-anchor="middle" font-family="system-ui" font-size="9" fill="#6B6B6B">7B</text>
  </g>

  <!-- 7C fav -->
  <g transform="translate(308, 496)">
    <rect width="48" height="48" rx="12" fill="#7C5CFC"/>
    <path d="M 13 38 L 13 18" fill="none" stroke="white" stroke-width="3" stroke-linecap="round"/>
    <path d="M 13 18 L 24 30" fill="none" stroke="white" stroke-width="3" stroke-linecap="round" stroke-linejoin="round"/>
    <path d="M 24 30 L 35 18" fill="none" stroke="white" stroke-width="3" stroke-linecap="round" stroke-linejoin="round"/>
    <path d="M 35 18 L 35 38" fill="none" stroke="white" stroke-width="3" stroke-linecap="round"/>
    <!-- Floating dots -->
    <circle cx="13" cy="9" r="4" fill="white"/>
    <circle cx="13" cy="9" r="1.5" fill="#7C5CFC"/>
    <circle cx="35" cy="9" r="4" fill="white"/>
    <circle cx="35" cy="9" r="1.5" fill="#7C5CFC"/>
    <text x="24" y="62" text-anchor="middle" font-family="system-ui" font-size="9" fill="#6B6B6B">7C</text>
  </g>

  <!-- 7E fav -->
  <g transform="translate(428, 496)">
    <rect width="48" height="48" rx="12" fill="#7C5CFC"/>
    <rect x="5" y="5" width="38" height="38" rx="14" fill="none" stroke="white" stroke-width="1.5" opacity="0.2"/>
    <path d="M 14 38 L 14 16" fill="none" stroke="white" stroke-width="3.5" stroke-linecap="round"/>
    <path d="M 14 16 L 24 28" fill="none" stroke="white" stroke-width="3.5" stroke-linecap="round" stroke-linejoin="round"/>
    <path d="M 24 28 L 34 16" fill="none" stroke="white" stroke-width="3.5" stroke-linecap="round" stroke-linejoin="round"/>
    <path d="M 34 16 L 34 38" fill="none" stroke="white" stroke-width="3.5" stroke-linecap="round"/>
    <circle cx="14" cy="12" r="4" fill="white"/>
    <circle cx="14" cy="12" r="1.5" fill="#7C5CFC"/>
    <circle cx="34" cy="12" r="4" fill="white"/>
    <circle cx="34" cy="12" r="1.5" fill="#7C5CFC"/>
    <text x="24" y="62" text-anchor="middle" font-family="system-ui" font-size="9" fill="#6B6B6B">7E</text>
  </g>

  <!-- 7F fav -->
  <g transform="translate(548, 496)">
    <rect width="48" height="48" rx="12" fill="#1A1A2E"/>
    <path d="M 13 38 L 13 14" fill="none" stroke="#7C5CFC" stroke-width="3.5" stroke-linecap="round"/>
    <path d="M 13 14 L 24 28" fill="none" stroke="#7C5CFC" stroke-width="3.5" stroke-linecap="round" stroke-linejoin="round"/>
    <path d="M 24 28 L 35 14" fill="none" stroke="#4F46E5" stroke-width="3.5" stroke-linecap="round" stroke-linejoin="round"/>
    <path d="M 35 14 L 35 38" fill="none" stroke="#4F46E5" stroke-width="3.5" stroke-linecap="round"/>
    <circle cx="13" cy="11" r="4" fill="#7C5CFC"/>
    <circle cx="35" cy="11" r="4" fill="#4F46E5"/>
    <circle cx="24" cy="28" r="3" fill="#6A51FA"/>
    <circle cx="24" cy="28" r="1.2" fill="white"/>
    <text x="24" y="62" text-anchor="middle" font-family="system-ui" font-size="9" fill="#6B6B6B">7F</text>
  </g>

  <!-- INLINE LOGOS + DARK BAR -->
  <text x="450" y="590" text-anchor="middle" font-family="system-ui" font-size="10" fill="#A3A3A3" letter-spacing="2">INLINE LOCKUPS</text>

  <!-- Light bg inline — 7A style -->
  <rect x="40" y="605" width="380" height="56" rx="12" fill="white" stroke="#E8E6E1" stroke-width="1"/>
  <g transform="translate(60, 620)">
    <path d="M 0 22 L 0 4" fill="none" stroke="#7C5CFC" stroke-width="3" stroke-linecap="round"/>
    <path d="M 0 4 L 10 14" fill="none" stroke="#7C5CFC" stroke-width="3" stroke-linecap="round" stroke-linejoin="round"/>
    <path d="M 10 14 L 20 4" fill="none" stroke="#7C5CFC" stroke-width="3" stroke-linecap="round" stroke-linejoin="round"/>
    <path d="M 20 4 L 20 22" fill="none" stroke="#7C5CFC" stroke-width="3" stroke-linecap="round"/>
    <circle cx="0" cy="2" r="3.5" fill="#7C5CFC"/>
    <circle cx="0" cy="2" r="1.3" fill="white"/>
    <circle cx="20" cy="2" r="3.5" fill="#7C5CFC"/>
    <circle cx="20" cy="2" r="1.3" fill="white"/>
    <text x="30" y="18" font-family="system-ui" font-size="22" font-weight="600" fill="#1A1A1A" letter-spacing="-1">mav</text>
    <text x="80" y="18" font-family="system-ui" font-size="22" font-weight="300" fill="#A3A3A3" letter-spacing="-0.5">.social</text>
  </g>

  <!-- Dark bg inline — 7A style -->
  <rect x="470" y="605" width="390" height="56" rx="12" fill="#1A1A1A"/>
  <g transform="translate(490, 620)">
    <path d="M 0 22 L 0 4" fill="none" stroke="white" stroke-width="3" stroke-linecap="round"/>
    <path d="M 0 4 L 10 14" fill="none" stroke="white" stroke-width="3" stroke-linecap="round" stroke-linejoin="round"/>
    <path d="M 10 14 L 20 4" fill="none" stroke="white" stroke-width="3" stroke-linecap="round" stroke-linejoin="round"/>
    <path d="M 20 4 L 20 22" fill="none" stroke="white" stroke-width="3" stroke-linecap="round"/>
    <circle cx="0" cy="2" r="3.5" fill="white"/>
    <circle cx="0" cy="2" r="1.3" fill="#1A1A1A"/>
    <circle cx="20" cy="2" r="3.5" fill="white"/>
    <circle cx="20" cy="2" r="1.3" fill="#1A1A1A"/>
    <text x="30" y="18" font-family="system-ui" font-size="22" font-weight="600" fill="white" letter-spacing="-1">mav</text>
    <text x="80" y="18" font-family="system-ui" font-size="22" font-weight="300" fill="#555" letter-spacing="-0.5">.social</text>
  </g>

  <!-- On-brand purple bg -->
  <rect x="40" y="700" width="820" height="70" rx="12" fill="#7C5CFC"/>
  <g transform="translate(60, 715)">
    <path d="M 0 26 L 0 5" fill="none" stroke="white" stroke-width="3.5" stroke-linecap="round"/>
    <path d="M 0 5 L 12 17" fill="none" stroke="white" stroke-width="3.5" stroke-linecap="round" stroke-linejoin="round"/>
    <path d="M 12 17 L 24 5" fill="none" stroke="white" stroke-width="3.5" stroke-linecap="round" stroke-linejoin="round"/>
    <path d="M 24 5 L 24 26" fill="none" stroke="white" stroke-width="3.5" stroke-linecap="round"/>
    <circle cx="0" cy="2.5" r="4" fill="white"/>
    <circle cx="0" cy="2.5" r="1.5" fill="#7C5CFC"/>
    <circle cx="24" cy="2.5" r="4" fill="white"/>
    <circle cx="24" cy="2.5" r="1.5" fill="#7C5CFC"/>
    <text x="36" y="22" font-family="system-ui" font-size="26" font-weight="600" fill="white" letter-spacing="-1">mav</text>
    <text x="100" y="22" font-family="system-ui" font-size="26" font-weight="300" fill="rgba(255,255,255,0.5)" letter-spacing="-0.5">.social</text>
  </g>
  <text x="450" y="786" text-anchor="middle" font-family="system-ui" font-size="9" fill="rgba(255,255,255,0.4)" letter-spacing="2">ON-BRAND PURPLE</text>
</svg>
