<svg xmlns="http://www.w3.org/2000/svg" viewBox="0 0 900 700" width="900" height="700">
  <rect width="900" height="700" fill="#FAFAF8"/>
  <text x="450" y="30" text-anchor="middle" font-family="system-ui" font-size="11" fill="#A3A3A3" letter-spacing="3">DIRECTION 6 — CONTAINED PULSE — REFINEMENTS</text>

  <!-- 6A: Rounded brackets, smooth sine pulse -->
  <g transform="translate(30, 55)">
    <text x="120" y="0" text-anchor="middle" font-family="system-ui" font-size="10" fill="#A3A3A3" letter-spacing="2">6A · SMOOTH SINE</text>
    <rect x="20" y="15" width="200" height="150" rx="16" fill="white" stroke="#E8E6E1" stroke-width="1"/>
    <path d="M 55 45 Q 50 45 50 50 L 50 110 Q 50 115 55 115" fill="none" stroke="#7C5CFC" stroke-width="5" stroke-linecap="round"/>
    <path d="M 185 45 Q 190 45 190 50 L 190 110 Q 190 115 185 115" fill="none" stroke="#7C5CFC" stroke-width="5" stroke-linecap="round"/>
    <path d="M 65 80 C 85 50 105 50 120 80 C 135 110 155 110 175 80" fill="none" stroke="#7C5CFC" stroke-width="3.5" stroke-linecap="round"/>
    <text x="120" y="145" text-anchor="middle" font-family="system-ui" font-size="24" font-weight="600" fill="#1A1A1A" letter-spacing="-1">mav</text>
  </g>

  <!-- 6B: Square brackets, sharp heartbeat -->
  <g transform="translate(260, 55)">
    <text x="120" y="0" text-anchor="middle" font-family="system-ui" font-size="10" fill="#A3A3A3" letter-spacing="2">6B · SHARP BEAT</text>
    <rect x="20" y="15" width="200" height="150" rx="16" fill="white" stroke="#E8E6E1" stroke-width="1"/>
    <path d="M 60 45 L 50 45 L 50 115 L 60 115" fill="none" stroke="#7C5CFC" stroke-width="5" stroke-linecap="round" stroke-linejoin="round"/>
    <path d="M 180 45 L 190 45 L 190 115 L 180 115" fill="none" stroke="#7C5CFC" stroke-width="5" stroke-linecap="round" stroke-linejoin="round"/>
    <path d="M 65 80 L 90 80 L 100 50 L 115 110 L 125 65 L 135 95 L 145 80 L 175 80" fill="none" stroke="#7C5CFC" stroke-width="3" stroke-linecap="round" stroke-linejoin="round"/>
    <text x="120" y="145" text-anchor="middle" font-family="system-ui" font-size="24" font-weight="700" fill="#1A1A1A" letter-spacing="-1.5">mav</text>
  </g>

  <!-- 6C: Thin elegant brackets, single peak -->
  <g transform="translate(490, 55)">
    <text x="120" y="0" text-anchor="middle" font-family="system-ui" font-size="10" fill="#A3A3A3" letter-spacing="2">6C · SINGLE PEAK</text>
    <rect x="20" y="15" width="200" height="150" rx="16" fill="white" stroke="#E8E6E1" stroke-width="1"/>
    <path d="M 58 40 Q 48 40 48 50 L 48 110 Q 48 120 58 120" fill="none" stroke="#7C5CFC" stroke-width="3" stroke-linecap="round"/>
    <path d="M 182 40 Q 192 40 192 50 L 192 110 Q 192 120 182 120" fill="none" stroke="#7C5CFC" stroke-width="3" stroke-linecap="round"/>
    <path d="M 60 85 L 95 85 L 120 45 L 145 85 L 180 85" fill="none" stroke="#7C5CFC" stroke-width="2.5" stroke-linecap="round" stroke-linejoin="round"/>
    <circle cx="120" cy="45" r="4" fill="#7C5CFC"/>
    <text x="120" y="145" text-anchor="middle" font-family="system-ui" font-size="24" font-weight="500" fill="#1A1A1A" letter-spacing="-0.5">mav</text>
  </g>

  <!-- 6D: Angle brackets with dot -->
  <g transform="translate(30, 265)">
    <text x="120" y="0" text-anchor="middle" font-family="system-ui" font-size="10" fill="#A3A3A3" letter-spacing="2">6D · ANGLE + DOT</text>
    <rect x="20" y="15" width="200" height="150" rx="16" fill="white" stroke="#E8E6E1" stroke-width="1"/>
    <path d="M 75 45 L 50 80 L 75 115" fill="none" stroke="#7C5CFC" stroke-width="5" stroke-linecap="round" stroke-linejoin="round"/>
    <path d="M 165 45 L 190 80 L 165 115" fill="none" stroke="#7C5CFC" stroke-width="5" stroke-linecap="round" stroke-linejoin="round"/>
    <circle cx="120" cy="80" r="14" fill="#7C5CFC"/>
    <circle cx="120" cy="80" r="5" fill="white"/>
    <text x="120" y="145" text-anchor="middle" font-family="system-ui" font-size="24" font-weight="600" fill="#1A1A1A" letter-spacing="-1">mav</text>
  </g>

  <!-- 6E: Parentheses with three dots -->
  <g transform="translate(260, 265)">
    <text x="120" y="0" text-anchor="middle" font-family="system-ui" font-size="10" fill="#A3A3A3" letter-spacing="2">6E · PARENS + DOTS</text>
    <rect x="20" y="15" width="200" height="150" rx="16" fill="white" stroke="#E8E6E1" stroke-width="1"/>
    <path d="M 65 40 Q 40 80 65 120" fill="none" stroke="#7C5CFC" stroke-width="5" stroke-linecap="round"/>
    <path d="M 175 40 Q 200 80 175 120" fill="none" stroke="#7C5CFC" stroke-width="5" stroke-linecap="round"/>
    <circle cx="100" cy="80" r="7" fill="#7C5CFC" opacity="0.2"/>
    <circle cx="120" cy="80" r="10" fill="#7C5CFC"/>
    <circle cx="120" cy="80" r="3.5" fill="white"/>
    <circle cx="140" cy="80" r="7" fill="#7C5CFC" opacity="0.2"/>
    <text x="120" y="145" text-anchor="middle" font-family="system-ui" font-size="24" font-weight="600" fill="#1A1A1A" letter-spacing="-1">mav</text>
  </g>

  <!-- 6F: Pill brackets with level indicator -->
  <g transform="translate(490, 265)">
    <text x="120" y="0" text-anchor="middle" font-family="system-ui" font-size="10" fill="#A3A3A3" letter-spacing="2">6F · LEVEL METER</text>
    <rect x="20" y="15" width="200" height="150" rx="16" fill="white" stroke="#E8E6E1" stroke-width="1"/>
    <rect x="50" y="45" width="140" height="70" rx="35" fill="none" stroke="#7C5CFC" stroke-width="4"/>
    <!-- Level bars -->
    <rect x="72" y="95" width="6" height="20" rx="3" fill="#7C5CFC" opacity="0.15" transform="rotate(180, 75, 85)"/>
    <rect x="88" y="88" width="6" height="27" rx="3" fill="#7C5CFC" opacity="0.25" transform="rotate(180, 91, 85)"/>
    <rect x="104" y="70" width="6" height="45" rx="3" fill="#7C5CFC" opacity="0.45" transform="rotate(180, 107, 85)"/>
    <rect x="120" y="60" width="6" height="55" rx="3" fill="#7C5CFC" opacity="0.65" transform="rotate(180, 123, 85)"/>
    <rect x="136" y="75" width="6" height="40" rx="3" fill="#7C5CFC" opacity="0.35" transform="rotate(180, 139, 85)"/>
    <rect x="152" y="85" width="6" height="30" rx="3" fill="#7C5CFC" opacity="0.2" transform="rotate(180, 155, 85)"/>
    <text x="120" y="145" text-anchor="middle" font-family="system-ui" font-size="24" font-weight="600" fill="#1A1A1A" letter-spacing="-1">mav</text>
  </g>

  <!-- Favicon row -->
  <text x="450" y="455" text-anchor="middle" font-family="system-ui" font-size="10" fill="#A3A3A3" letter-spacing="2">FAVICONS (32px)</text>

  <g transform="translate(80, 475)">
    <rect width="48" height="48" rx="12" fill="#7C5CFC"/>
    <path d="M 14 12 Q 10 12 10 15 L 10 33 Q 10 36 14 36" fill="none" stroke="white" stroke-width="2.5" stroke-linecap="round"/>
    <path d="M 34 12 Q 38 12 38 15 L 38 33 Q 38 36 34 36" fill="none" stroke="white" stroke-width="2.5" stroke-linecap="round"/>
    <path d="M 15 24 C 20 15 25 15 28 24 C 31 33 36 33 38 24" fill="none" stroke="white" stroke-width="1.8" stroke-linecap="round"/>
    <text x="24" y="60" text-anchor="middle" font-family="system-ui" font-size="9" fill="#6B6B6B">6A</text>
  </g>

  <g transform="translate(200, 475)">
    <rect width="48" height="48" rx="12" fill="#7C5CFC"/>
    <path d="M 14 12 L 10 12 L 10 36 L 14 36" fill="none" stroke="white" stroke-width="2.5" stroke-linecap="round" stroke-linejoin="round"/>
    <path d="M 34 12 L 38 12 L 38 36 L 34 36" fill="none" stroke="white" stroke-width="2.5" stroke-linecap="round" stroke-linejoin="round"/>
    <path d="M 14 24 L 19 24 L 22 14 L 26 34 L 29 20 L 31 28 L 34 24" fill="none" stroke="white" stroke-width="1.5" stroke-linecap="round" stroke-linejoin="round"/>
    <text x="24" y="60" text-anchor="middle" font-family="system-ui" font-size="9" fill="#6B6B6B">6B</text>
  </g>

  <g transform="translate(320, 475)">
    <rect width="48" height="48" rx="12" fill="#7C5CFC"/>
    <path d="M 14 10 Q 8 10 8 16 L 8 32 Q 8 38 14 38" fill="none" stroke="white" stroke-width="2" stroke-linecap="round"/>
    <path d="M 34 10 Q 40 10 40 16 L 40 32 Q 40 38 34 38" fill="none" stroke="white" stroke-width="2" stroke-linecap="round"/>
    <path d="M 13 26 L 20 26 L 24 12 L 28 26 L 35 26" fill="none" stroke="white" stroke-width="1.8" stroke-linecap="round" stroke-linejoin="round"/>
    <circle cx="24" cy="12" r="2.5" fill="white"/>
    <text x="24" y="60" text-anchor="middle" font-family="system-ui" font-size="9" fill="#6B6B6B">6C</text>
  </g>

  <g transform="translate(440, 475)">
    <rect width="48" height="48" rx="12" fill="#7C5CFC"/>
    <path d="M 17 12 L 8 24 L 17 36" fill="none" stroke="white" stroke-width="2.5" stroke-linecap="round" stroke-linejoin="round"/>
    <path d="M 31 12 L 40 24 L 31 36" fill="none" stroke="white" stroke-width="2.5" stroke-linecap="round" stroke-linejoin="round"/>
    <circle cx="24" cy="24" r="5.5" fill="white"/>
    <circle cx="24" cy="24" r="2" fill="#7C5CFC"/>
    <text x="24" y="60" text-anchor="middle" font-family="system-ui" font-size="9" fill="#6B6B6B">6D</text>
  </g>

  <g transform="translate(560, 475)">
    <rect width="48" height="48" rx="12" fill="#7C5CFC"/>
    <path d="M 15 10 Q 6 24 15 38" fill="none" stroke="white" stroke-width="2.5" stroke-linecap="round"/>
    <path d="M 33 10 Q 42 24 33 38" fill="none" stroke="white" stroke-width="2.5" stroke-linecap="round"/>
    <circle cx="18" cy="24" r="3" fill="white" opacity="0.25"/>
    <circle cx="24" cy="24" r="4.5" fill="white"/>
    <circle cx="30" cy="24" r="3" fill="white" opacity="0.25"/>
    <text x="24" y="60" text-anchor="middle" font-family="system-ui" font-size="9" fill="#6B6B6B">6E</text>
  </g>

  <g transform="translate(680, 475)">
    <rect width="48" height="48" rx="12" fill="#7C5CFC"/>
    <rect x="8" y="12" width="32" height="24" rx="12" fill="none" stroke="white" stroke-width="2"/>
    <rect x="14" y="28" width="3" height="8" rx="1.5" fill="white" opacity="0.2" transform="rotate(180, 15.5, 24)"/>
    <rect x="19" y="25" width="3" height="11" rx="1.5" fill="white" opacity="0.35" transform="rotate(180, 20.5, 24)"/>
    <rect x="24" y="19" width="3" height="17" rx="1.5" fill="white" opacity="0.6" transform="rotate(180, 25.5, 24)"/>
    <rect x="29" y="22" width="3" height="14" rx="1.5" fill="white" opacity="0.4" transform="rotate(180, 30.5, 24)"/>
    <text x="24" y="60" text-anchor="middle" font-family="system-ui" font-size="9" fill="#6B6B6B">6F</text>
  </g>

  <!-- Dark inline row -->
  <text x="450" y="570" text-anchor="middle" font-family="system-ui" font-size="10" fill="#A3A3A3" letter-spacing="2">INLINE ON DARK</text>
  <rect x="50" y="585" width="800" height="65" rx="12" fill="#1A1A1A"/>
  
  <g transform="translate(80, 600)">
    <path d="M 3 3 Q 0 3 0 6 L 0 22 Q 0 25 3 25" fill="none" stroke="white" stroke-width="2" stroke-linecap="round"/>
    <path d="M 25 3 Q 28 3 28 6 L 28 22 Q 28 25 25 25" fill="none" stroke="white" stroke-width="2" stroke-linecap="round"/>
    <path d="M 5 14 C 10 6 15 6 18 14 C 21 22 26 22 28 14" fill="none" stroke="white" stroke-width="1.5" stroke-linecap="round"/>
    <text x="36" y="20" font-family="system-ui" font-size="20" font-weight="600" fill="white" letter-spacing="-1">mav</text>
    <text x="80" y="20" font-family="system-ui" font-size="20" font-weight="300" fill="#666" letter-spacing="-0.5">.social</text>
  </g>

  <g transform="translate(350, 600)">
    <path d="M 8 4 L 2 14 L 8 24" fill="none" stroke="white" stroke-width="2.5" stroke-linecap="round" stroke-linejoin="round"/>
    <path d="M 28 4 L 34 14 L 28 24" fill="none" stroke="white" stroke-width="2.5" stroke-linecap="round" stroke-linejoin="round"/>
    <circle cx="18" cy="14" r="5" fill="white"/>
    <circle cx="18" cy="14" r="1.8" fill="#1A1A1A"/>
    <text x="46" y="20" font-family="system-ui" font-size="20" font-weight="600" fill="white" letter-spacing="-1">mav</text>
    <text x="90" y="20" font-family="system-ui" font-size="20" font-weight="300" fill="#666" letter-spacing="-0.5">.social</text>
  </g>

  <g transform="translate(620, 600)">
    <path d="M 3 2 Q 0 2 0 5 L 0 23 Q 0 26 3 26" fill="none" stroke="white" stroke-width="1.5" stroke-linecap="round"/>
    <path d="M 25 2 Q 28 2 28 5 L 28 23 Q 28 26 25 26" fill="none" stroke="white" stroke-width="1.5" stroke-linecap="round"/>
    <path d="M 4 17 L 10 17 L 14 5 L 18 17 L 24 17" fill="none" stroke="white" stroke-width="1.5" stroke-linecap="round" stroke-linejoin="round"/>
    <circle cx="14" cy="5" r="2" fill="white"/>
    <text x="36" y="20" font-family="system-ui" font-size="20" font-weight="500" fill="white" letter-spacing="-0.5">mav</text>
    <text x="80" y="20" font-family="system-ui" font-size="20" font-weight="300" fill="#666" letter-spacing="-0.5">.social</text>
  </g>
</svg>