<svg xmlns="http://www.w3.org/2000/svg" viewBox="0 0 800 600" width="800" height="600">
  <rect width="800" height="600" fill="#FAFAF8"/>
  <text x="400" y="28" text-anchor="middle" font-family="system-ui" font-size="11" fill="#A3A3A3" letter-spacing="3">MAV — FINAL LOGO</text>

  <!-- ── MARK (large, light bg) ── -->
  <text x="200" y="58" text-anchor="middle" font-family="system-ui" font-size="9" fill="#C0BDB8" letter-spacing="2">MARK</text>
  <g transform="translate(110, 75)">
    <circle cx="30"  cy="110" r="18" fill="#7C5CFC" opacity="0.08"/>
    <circle cx="58"  cy="84"  r="22" fill="#7C5CFC" opacity="0.18"/>
    <circle cx="100" cy="48"  r="32" fill="#7C5CFC"/>
    <circle cx="100" cy="48"  r="12" fill="white"/>
  </g>

  <!-- ── FAVICON ── -->
  <text x="580" y="58" text-anchor="middle" font-family="system-ui" font-size="9" fill="#C0BDB8" letter-spacing="2">FAVICON 64px</text>
  <g transform="translate(536, 68)">
    <rect width="88" height="88" rx="20" fill="#7C5CFC"/>
    <circle cx="22" cy="62" r="9"  fill="white" opacity="0.1"/>
    <circle cx="36" cy="48" r="12" fill="white" opacity="0.2"/>
    <circle cx="56" cy="28" r="18" fill="white"/>
    <circle cx="56" cy="28" r="7"  fill="#7C5CFC"/>
  </g>

  <!-- ── LIGHT BG INLINE ── -->
  <text x="400" y="248" text-anchor="middle" font-family="system-ui" font-size="9" fill="#C0BDB8" letter-spacing="2">INLINE — LIGHT</text>
  <rect x="40" y="260" width="720" height="72" rx="12" fill="white" stroke="#E8E6E1" stroke-width="1"/>
  <g transform="translate(72, 278)">
    <circle cx="6"  cy="22" r="6"  fill="#7C5CFC" opacity="0.08"/>
    <circle cx="16" cy="16" r="8"  fill="#7C5CFC" opacity="0.18"/>
    <circle cx="30" cy="8"  r="12" fill="#7C5CFC"/>
    <circle cx="30" cy="8"  r="4.5" fill="white"/>
    <text x="50" y="24" font-family="system-ui" font-size="28" font-weight="600" fill="#1A1A1A" letter-spacing="-1.5">mav</text>
  </g>

  <!-- ── DARK BG INLINE ── -->
  <text x="400" y="366" text-anchor="middle" font-family="system-ui" font-size="9" fill="#C0BDB8" letter-spacing="2">INLINE — DARK</text>
  <rect x="40" y="378" width="720" height="72" rx="12" fill="#1A1A1A"/>
  <g transform="translate(72, 396)">
    <circle cx="6"  cy="22" r="6"  fill="white" opacity="0.1"/>
    <circle cx="16" cy="16" r="8"  fill="white" opacity="0.2"/>
    <circle cx="30" cy="8"  r="12" fill="white"/>
    <circle cx="30" cy="8"  r="4.5" fill="#1A1A1A"/>
    <text x="50" y="24" font-family="system-ui" font-size="28" font-weight="600" fill="white" letter-spacing="-1.5">mav</text>
  </g>

  <!-- ── BRAND PURPLE INLINE ── -->
  <text x="400" y="484" text-anchor="middle" font-family="system-ui" font-size="9" fill="#C0BDB8" letter-spacing="2">INLINE — BRAND</text>
  <rect x="40" y="496" width="720" height="72" rx="12" fill="#7C5CFC"/>
  <g transform="translate(72, 514)">
    <circle cx="6"  cy="22" r="6"  fill="white" opacity="0.1"/>
    <circle cx="16" cy="16" r="8"  fill="white" opacity="0.2"/>
    <circle cx="30" cy="8"  r="12" fill="white"/>
    <circle cx="30" cy="8"  r="4.5" fill="#7C5CFC"/>
    <text x="50" y="24" font-family="system-ui" font-size="28" font-weight="600" fill="white" letter-spacing="-1.5">mav</text>
  </g>

</svg>
